STARTFONT 2.1
COMMENT Recovered from ar1.1:TR12B 1 (Xerox Alto CONVERT font source (AL) recovered from MIT CADR AR1 ARC!!!)
FONT MIT-CADR-TR12B-AL-AR1
SIZE 16 72 72
FONTBOUNDINGBOX 14 16 0 -4
STARTPROPERTIES 2
FONT_ASCENT 12
FONT_DESCENT 4
ENDPROPERTIES
CHARS 128
STARTCHAR C0000
ENCODING -1 0
SWIDTH 0 0
DWIDTH 0 0
BBX 0 16 0 -4
BITMAP
00
00
00
00
00
00
00
00
00
00
00
00
00
00
00
00
ENDCHAR
STARTCHAR C0001
ENCODING -1 1
SWIDTH 0 0
DWIDTH 0 0
BBX 0 16 0 -4
BITMAP
00
00
00
00
00
00
00
00
00
00
00
00
00
00
00
00
ENDCHAR
STARTCHAR C0002
ENCODING -1 2
SWIDTH 0 0
DWIDTH 0 0
BBX 0 16 0 -4
BITMAP
00
00
00
00
00
00
00
00
00
00
00
00
00
00
00
00
ENDCHAR
STARTCHAR C0003
ENCODING -1 3
SWIDTH 0 0
DWIDTH 0 0
BBX 0 16 0 -4
BITMAP
00
00
00
00
00
00
00
00
00
00
00
00
00
00
00
00
ENDCHAR
STARTCHAR C0004
ENCODING -1 4
SWIDTH 0 0
DWIDTH 0 0
BBX 0 16 0 -4
BITMAP
00
00
00
00
00
00
00
00
00
00
00
00
00
00
00
00
ENDCHAR
STARTCHAR C0005
ENCODING -1 5
SWIDTH 0 0
DWIDTH 0 0
BBX 0 16 0 -4
BITMAP
00
00
00
00
00
00
00
00
00
00
00
00
00
00
00
00
ENDCHAR
STARTCHAR C0006
ENCODING -1 6
SWIDTH 0 0
DWIDTH 0 0
BBX 0 16 0 -4
BITMAP
00
00
00
00
00
00
00
00
00
00
00
00
00
00
00
00
ENDCHAR
STARTCHAR C0007
ENCODING -1 7
SWIDTH 0 0
DWIDTH 0 0
BBX 0 16 0 -4
BITMAP
00
00
00
00
00
00
00
00
00
00
00
00
00
00
00
00
ENDCHAR
STARTCHAR C0008
ENCODING -1 8
SWIDTH 0 0
DWIDTH 0 0
BBX 0 16 0 -4
BITMAP
00
00
00
00
00
00
00
00
00
00
00
00
00
00
00
00
ENDCHAR
STARTCHAR C0009
ENCODING -1 9
SWIDTH 0 0
DWIDTH 0 0
BBX 0 16 0 -4
BITMAP
00
00
00
00
00
00
00
00
00
00
00
00
00
00
00
00
ENDCHAR
STARTCHAR C000A
ENCODING -1 10
SWIDTH 0 0
DWIDTH 0 0
BBX 0 16 0 -4
BITMAP
00
00
00
00
00
00
00
00
00
00
00
00
00
00
00
00
ENDCHAR
STARTCHAR C000B
ENCODING -1 11
SWIDTH 0 0
DWIDTH 0 0
BBX 0 16 0 -4
BITMAP
00
00
00
00
00
00
00
00
00
00
00
00
00
00
00
00
ENDCHAR
STARTCHAR C000C
ENCODING -1 12
SWIDTH 0 0
DWIDTH 0 0
BBX 0 16 0 -4
BITMAP
00
00
00
00
00
00
00
00
00
00
00
00
00
00
00
00
ENDCHAR
STARTCHAR C000D
ENCODING -1 13
SWIDTH 0 0
DWIDTH 0 0
BBX 0 16 0 -4
BITMAP
00
00
00
00
00
00
00
00
00
00
00
00
00
00
00
00
ENDCHAR
STARTCHAR C000E
ENCODING -1 14
SWIDTH 0 0
DWIDTH 0 0
BBX 0 16 0 -4
BITMAP
00
00
00
00
00
00
00
00
00
00
00
00
00
00
00
00
ENDCHAR
STARTCHAR C000F
ENCODING -1 15
SWIDTH 0 0
DWIDTH 0 0
BBX 0 16 0 -4
BITMAP
00
00
00
00
00
00
00
00
00
00
00
00
00
00
00
00
ENDCHAR
STARTCHAR C0010
ENCODING -1 16
SWIDTH 0 0
DWIDTH 0 0
BBX 0 16 0 -4
BITMAP
00
00
00
00
00
00
00
00
00
00
00
00
00
00
00
00
ENDCHAR
STARTCHAR C0011
ENCODING -1 17
SWIDTH 0 0
DWIDTH 0 0
BBX 0 16 0 -4
BITMAP
00
00
00
00
00
00
00
00
00
00
00
00
00
00
00
00
ENDCHAR
STARTCHAR C0012
ENCODING -1 18
SWIDTH 0 0
DWIDTH 0 0
BBX 0 16 0 -4
BITMAP
00
00
00
00
00
00
00
00
00
00
00
00
00
00
00
00
ENDCHAR
STARTCHAR C0013
ENCODING -1 19
SWIDTH 0 0
DWIDTH 0 0
BBX 0 16 0 -4
BITMAP
00
00
00
00
00
00
00
00
00
00
00
00
00
00
00
00
ENDCHAR
STARTCHAR C0014
ENCODING -1 20
SWIDTH 0 0
DWIDTH 0 0
BBX 0 16 0 -4
BITMAP
00
00
00
00
00
00
00
00
00
00
00
00
00
00
00
00
ENDCHAR
STARTCHAR C0015
ENCODING -1 21
SWIDTH 0 0
DWIDTH 0 0
BBX 0 16 0 -4
BITMAP
00
00
00
00
00
00
00
00
00
00
00
00
00
00
00
00
ENDCHAR
STARTCHAR C0016
ENCODING -1 22
SWIDTH 0 0
DWIDTH 0 0
BBX 0 16 0 -4
BITMAP
00
00
00
00
00
00
00
00
00
00
00
00
00
00
00
00
ENDCHAR
STARTCHAR C0017
ENCODING -1 23
SWIDTH 0 0
DWIDTH 0 0
BBX 0 16 0 -4
BITMAP
00
00
00
00
00
00
00
00
00
00
00
00
00
00
00
00
ENDCHAR
STARTCHAR C0018
ENCODING -1 24
SWIDTH 0 0
DWIDTH 0 0
BBX 14 16 0 -4
BITMAP
0000
0000
0000
0000
0000
0000
0000
0000
0000
0000
0000
0000
0000
0000
0000
FFFC
ENDCHAR
STARTCHAR C0019
ENCODING -1 25
SWIDTH 0 0
DWIDTH 0 0
BBX 0 16 0 -4
BITMAP
00
00
00
00
00
00
00
00
00
00
00
00
00
00
00
00
ENDCHAR
STARTCHAR C001A
ENCODING -1 26
SWIDTH 0 0
DWIDTH 0 0
BBX 0 16 0 -4
BITMAP
00
00
00
00
00
00
00
00
00
00
00
00
00
00
00
00
ENDCHAR
STARTCHAR C001B
ENCODING -1 27
SWIDTH 0 0
DWIDTH 0 0
BBX 0 16 0 -4
BITMAP
00
00
00
00
00
00
00
00
00
00
00
00
00
00
00
00
ENDCHAR
STARTCHAR C001C
ENCODING -1 28
SWIDTH 0 0
DWIDTH 0 0
BBX 0 16 0 -4
BITMAP
00
00
00
00
00
00
00
00
00
00
00
00
00
00
00
00
ENDCHAR
STARTCHAR C001D
ENCODING -1 29
SWIDTH 0 0
DWIDTH 0 0
BBX 0 16 0 -4
BITMAP
00
00
00
00
00
00
00
00
00
00
00
00
00
00
00
00
ENDCHAR
STARTCHAR C001E
ENCODING -1 30
SWIDTH 0 0
DWIDTH 0 0
BBX 0 16 0 -4
BITMAP
00
00
00
00
00
00
00
00
00
00
00
00
00
00
00
00
ENDCHAR
STARTCHAR C001F
ENCODING -1 31
SWIDTH 0 0
DWIDTH 0 0
BBX 0 16 0 -4
BITMAP
00
00
00
00
00
00
00
00
00
00
00
00
00
00
00
00
ENDCHAR
STARTCHAR C0020
ENCODING -1 32
SWIDTH 375 0
DWIDTH 6 0
BBX 6 16 0 -4
BITMAP
00
00
00
00
00
00
00
00
00
00
00
00
00
00
00
00
ENDCHAR
STARTCHAR C0021
ENCODING -1 33
SWIDTH 250 0
DWIDTH 4 0
BBX 4 16 0 -4
BITMAP
00
00
00
60
60
60
60
60
60
60
00
60
60
00
00
00
ENDCHAR
STARTCHAR C0022
ENCODING -1 34
SWIDTH 438 0
DWIDTH 7 0
BBX 7 16 0 -4
BITMAP
00
00
00
6C
6C
6C
6C
00
00
00
00
00
00
00
00
00
ENDCHAR
STARTCHAR C0023
ENCODING -1 35
SWIDTH 750 0
DWIDTH 12 0
BBX 12 16 0 -4
BITMAP
0000
0000
0000
06C0
06C0
1FE0
0D80
1980
1B00
7F80
3600
3600
0000
0000
0000
0000
ENDCHAR
STARTCHAR C0024
ENCODING -1 36
SWIDTH 562 0
DWIDTH 9 0
BBX 9 16 0 -4
BITMAP
0000
0000
0800
3E00
6B00
6800
7800
3E00
0F00
0B00
4B00
6B00
3E00
0800
0000
0000
ENDCHAR
STARTCHAR C0025
ENCODING -1 37
SWIDTH 812 0
DWIDTH 13 0
BBX 13 16 0 -4
BITMAP
0000
0000
1840
27C0
4480
4580
4900
3260
0490
0510
0910
1920
10C0
0000
0000
0000
ENDCHAR
STARTCHAR C0026
ENCODING -1 38
SWIDTH 750 0
DWIDTH 12 0
BBX 12 16 0 -4
BITMAP
0000
0000
0000
0E00
1B00
1B00
0E00
1CE0
2E40
6680
6700
7380
3DE0
0000
0000
0000
ENDCHAR
STARTCHAR C0027
ENCODING -1 39
SWIDTH 250 0
DWIDTH 4 0
BBX 4 16 0 -4
BITMAP
00
00
00
60
60
60
60
00
00
00
00
00
00
00
00
00
ENDCHAR
STARTCHAR C0028
ENCODING -1 40
SWIDTH 375 0
DWIDTH 6 0
BBX 6 16 0 -4
BITMAP
00
00
08
10
20
20
60
60
60
60
60
20
20
10
08
00
ENDCHAR
STARTCHAR C0029
ENCODING -1 41
SWIDTH 375 0
DWIDTH 6 0
BBX 6 16 0 -4
BITMAP
00
00
40
20
30
10
18
18
18
18
18
10
30
20
40
00
ENDCHAR
STARTCHAR C002A
ENCODING -1 42
SWIDTH 625 0
DWIDTH 10 0
BBX 10 16 0 -4
BITMAP
0C00
6D80
3F00
0C00
1E00
3300
0000
0000
0000
0000
0000
0000
0000
0000
0000
0000
ENDCHAR
STARTCHAR C002B
ENCODING -1 43
SWIDTH 625 0
DWIDTH 10 0
BBX 10 16 0 -4
BITMAP
0000
0000
0000
0000
0000
0C00
0C00
0C00
7F80
7F80
0C00
0C00
0C00
0000
0000
0000
ENDCHAR
STARTCHAR C002C
ENCODING -1 44
SWIDTH 250 0
DWIDTH 4 0
BBX 4 16 0 -4
BITMAP
00
00
00
00
00
00
00
00
00
00
00
60
60
20
40
00
ENDCHAR
STARTCHAR C002D
ENCODING -1 45
SWIDTH 438 0
DWIDTH 7 0
BBX 7 16 0 -4
BITMAP
00
00
00
00
00
00
00
00
7C
7C
00
00
00
00
00
00
ENDCHAR
STARTCHAR C002E
ENCODING -1 46
SWIDTH 250 0
DWIDTH 4 0
BBX 4 16 0 -4
BITMAP
00
00
00
00
00
00
00
00
00
00
00
60
60
00
00
00
ENDCHAR
STARTCHAR C002F
ENCODING -1 47
SWIDTH 500 0
DWIDTH 8 0
BBX 8 16 0 -4
BITMAP
00
00
00
06
06
0C
0C
18
18
30
30
60
60
00
00
00
ENDCHAR
STARTCHAR C0030
ENCODING -1 48
SWIDTH 500 0
DWIDTH 8 0
BBX 8 16 0 -4
BITMAP
00
00
00
18
24
66
66
66
66
66
66
24
18
00
00
00
ENDCHAR
STARTCHAR C0031
ENCODING -1 49
SWIDTH 500 0
DWIDTH 8 0
BBX 8 16 0 -4
BITMAP
00
00
00
0C
1C
3C
0C
0C
0C
0C
0C
0C
1E
00
00
00
ENDCHAR
STARTCHAR C0032
ENCODING -1 50
SWIDTH 500 0
DWIDTH 8 0
BBX 8 16 0 -4
BITMAP
00
00
00
38
7C
4C
0C
0C
18
10
32
7E
FE
00
00
00
ENDCHAR
STARTCHAR C0033
ENCODING -1 51
SWIDTH 500 0
DWIDTH 8 0
BBX 8 16 0 -4
BITMAP
00
00
00
38
6C
0C
0C
38
0C
06
C6
CC
78
00
00
00
ENDCHAR
STARTCHAR C0034
ENCODING -1 52
SWIDTH 500 0
DWIDTH 8 0
BBX 8 16 0 -4
BITMAP
00
00
00
0C
1C
1C
2C
2C
4C
4C
7E
0C
0C
00
00
00
ENDCHAR
STARTCHAR C0035
ENCODING -1 53
SWIDTH 500 0
DWIDTH 8 0
BBX 8 16 0 -4
BITMAP
00
00
00
3E
3C
60
7C
7E
06
02
42
E4
78
00
00
00
ENDCHAR
STARTCHAR C0036
ENCODING -1 54
SWIDTH 500 0
DWIDTH 8 0
BBX 8 16 0 -4
BITMAP
00
00
00
0C
30
20
78
64
66
66
66
24
18
00
00
00
ENDCHAR
STARTCHAR C0037
ENCODING -1 55
SWIDTH 500 0
DWIDTH 8 0
BBX 8 16 0 -4
BITMAP
00
00
00
3E
7E
42
04
04
08
08
08
10
10
00
00
00
ENDCHAR
STARTCHAR C0038
ENCODING -1 56
SWIDTH 500 0
DWIDTH 8 0
BBX 8 16 0 -4
BITMAP
00
00
00
3C
66
66
34
18
2C
66
66
66
3C
00
00
00
ENDCHAR
STARTCHAR C0039
ENCODING -1 57
SWIDTH 500 0
DWIDTH 8 0
BBX 8 16 0 -4
BITMAP
00
00
00
18
24
66
66
66
26
1E
04
0C
38
00
00
00
ENDCHAR
STARTCHAR C003A
ENCODING -1 58
SWIDTH 250 0
DWIDTH 4 0
BBX 4 16 0 -4
BITMAP
00
00
00
00
00
00
60
60
00
00
00
60
60
00
00
00
ENDCHAR
STARTCHAR C003B
ENCODING -1 59
SWIDTH 250 0
DWIDTH 4 0
BBX 4 16 0 -4
BITMAP
00
00
00
00
00
00
60
60
00
00
00
60
60
20
40
00
ENDCHAR
STARTCHAR C003C
ENCODING -1 60
SWIDTH 562 0
DWIDTH 9 0
BBX 9 16 0 -4
BITMAP
0000
0000
0000
0300
0600
0C00
1800
3000
3000
1800
0C00
0600
0300
0000
0000
0000
ENDCHAR
STARTCHAR C003D
ENCODING -1 61
SWIDTH 438 0
DWIDTH 7 0
BBX 7 16 0 -4
BITMAP
00
00
00
00
00
00
00
7C
7C
00
7C
7C
00
00
00
00
ENDCHAR
STARTCHAR C003E
ENCODING -1 62
SWIDTH 500 0
DWIDTH 8 0
BBX 8 16 0 -4
BITMAP
00
00
00
60
30
18
0C
06
06
0C
18
30
60
00
00
00
ENDCHAR
STARTCHAR C003F
ENCODING -1 63
SWIDTH 438 0
DWIDTH 7 0
BBX 7 16 0 -4
BITMAP
00
00
00
38
4C
6C
0C
18
10
30
00
30
30
00
00
00
ENDCHAR
STARTCHAR C0040
ENCODING -1 64
SWIDTH 875 0
DWIDTH 14 0
BBX 14 16 0 -4
BITMAP
0000
0000
07C0
1830
2010
2348
44C8
4848
4888
4D90
26E0
2008
1830
07C0
0000
0000
ENDCHAR
STARTCHAR C0041
ENCODING -1 65
SWIDTH 688 0
DWIDTH 11 0
BBX 11 16 0 -4
BITMAP
0000
0000
0000
0400
0E00
0E00
0A00
1300
1300
1F00
2180
2180
73C0
0000
0000
0000
ENDCHAR
STARTCHAR C0042
ENCODING -1 66
SWIDTH 625 0
DWIDTH 10 0
BBX 10 16 0 -4
BITMAP
0000
0000
0000
7E00
3300
3300
3300
3E00
3300
3180
3180
3180
7F00
0000
0000
0000
ENDCHAR
STARTCHAR C0043
ENCODING -1 67
SWIDTH 625 0
DWIDTH 10 0
BBX 10 16 0 -4
BITMAP
0000
0000
0000
1E80
3180
6080
6000
6000
6000
6000
6080
3080
1F00
0000
0000
0000
ENDCHAR
STARTCHAR C0044
ENCODING -1 68
SWIDTH 750 0
DWIDTH 12 0
BBX 12 16 0 -4
BITMAP
0000
0000
0000
7F80
30C0
3060
3060
3060
3060
3060
3060
30C0
7F80
0000
0000
0000
ENDCHAR
STARTCHAR C0045
ENCODING -1 69
SWIDTH 625 0
DWIDTH 10 0
BBX 10 16 0 -4
BITMAP
0000
0000
0000
7F80
3080
3080
3200
3E00
3200
3000
3080
3080
7F80
0000
0000
0000
ENDCHAR
STARTCHAR C0046
ENCODING -1 70
SWIDTH 625 0
DWIDTH 10 0
BBX 10 16 0 -4
BITMAP
0000
0000
0000
7F80
3080
3080
3200
3E00
3200
3000
3000
3000
7800
0000
0000
0000
ENDCHAR
STARTCHAR C0047
ENCODING -1 71
SWIDTH 750 0
DWIDTH 12 0
BBX 12 16 0 -4
BITMAP
0000
0000
0000
1F40
30C0
6040
6000
6000
60E0
6040
6040
30C0
1F40
0000
0000
0000
ENDCHAR
STARTCHAR C0048
ENCODING -1 72
SWIDTH 750 0
DWIDTH 12 0
BBX 12 16 0 -4
BITMAP
0000
0000
0000
79E0
30C0
30C0
30C0
3FC0
30C0
30C0
30C0
30C0
79E0
0000
0000
0000
ENDCHAR
STARTCHAR C0049
ENCODING -1 73
SWIDTH 375 0
DWIDTH 6 0
BBX 6 16 0 -4
BITMAP
00
00
00
78
30
30
30
30
30
30
30
30
78
00
00
00
ENDCHAR
STARTCHAR C004A
ENCODING -1 74
SWIDTH 438 0
DWIDTH 7 0
BBX 7 16 0 -4
BITMAP
00
00
00
3C
18
18
18
18
18
18
98
98
70
00
00
00
ENDCHAR
STARTCHAR C004B
ENCODING -1 75
SWIDTH 688 0
DWIDTH 11 0
BBX 11 16 0 -4
BITMAP
0000
0000
0000
7BC0
3100
3200
3400
3C00
3E00
3700
3380
31C0
7BE0
0000
0000
0000
ENDCHAR
STARTCHAR C004C
ENCODING -1 76
SWIDTH 625 0
DWIDTH 10 0
BBX 10 16 0 -4
BITMAP
0000
0000
0000
7800
3000
3000
3000
3000
3000
3000
3080
3080
7F80
0000
0000
0000
ENDCHAR
STARTCHAR C004D
ENCODING -1 77
SWIDTH 875 0
DWIDTH 14 0
BBX 14 16 0 -4
BITMAP
0000
0000
0000
7078
3070
3870
38B0
2CB0
2D30
2530
2730
2230
7278
0000
0000
0000
ENDCHAR
STARTCHAR C004E
ENCODING -1 78
SWIDTH 750 0
DWIDTH 12 0
BBX 12 16 0 -4
BITMAP
0000
0000
0000
70E0
3840
3840
2C40
2E40
2740
2340
21C0
21C0
70C0
0000
0000
0000
ENDCHAR
STARTCHAR C004F
ENCODING -1 79
SWIDTH 688 0
DWIDTH 11 0
BBX 11 16 0 -4
BITMAP
0000
0000
0000
1F00
3180
60C0
60C0
60C0
60C0
60C0
60C0
3180
1F00
0000
0000
0000
ENDCHAR
STARTCHAR C0050
ENCODING -1 80
SWIDTH 562 0
DWIDTH 9 0
BBX 9 16 0 -4
BITMAP
0000
0000
0000
7E00
3300
3300
3300
3300
3E00
3000
3000
3000
7800
0000
0000
0000
ENDCHAR
STARTCHAR C0051
ENCODING -1 81
SWIDTH 688 0
DWIDTH 11 0
BBX 11 16 0 -4
BITMAP
0000
0000
0000
1F00
3180
60C0
60C0
60C0
60C0
60C0
60C0
3180
1F00
0600
0300
0180
ENDCHAR
STARTCHAR C0052
ENCODING -1 82
SWIDTH 625 0
DWIDTH 10 0
BBX 10 16 0 -4
BITMAP
0000
0000
0000
7E00
3300
3300
3300
3E00
3600
3300
3300
3180
79C0
0000
0000
0000
ENDCHAR
STARTCHAR C0053
ENCODING -1 83
SWIDTH 562 0
DWIDTH 9 0
BBX 9 16 0 -4
BITMAP
0000
0000
0000
3A00
6600
6200
7000
3C00
1E00
4700
4300
6300
5E00
0000
0000
0000
ENDCHAR
STARTCHAR C0054
ENCODING -1 84
SWIDTH 625 0
DWIDTH 10 0
BBX 10 16 0 -4
BITMAP
0000
0000
0000
7F80
4C80
4C80
0C00
0C00
0C00
0C00
0C00
0C00
1E00
0000
0000
0000
ENDCHAR
STARTCHAR C0055
ENCODING -1 85
SWIDTH 750 0
DWIDTH 12 0
BBX 12 16 0 -4
BITMAP
0000
0000
0000
78E0
3040
3040
3040
3040
3040
3040
3040
18C0
0F80
0000
0000
0000
ENDCHAR
STARTCHAR C0056
ENCODING -1 86
SWIDTH 750 0
DWIDTH 12 0
BBX 12 16 0 -4
BITMAP
0000
0000
0000
78E0
3040
3840
1880
1880
1D00
0D00
0E00
0600
0600
0000
0000
0000
ENDCHAR
STARTCHAR C0057
ENCODING -1 87
SWIDTH 875 0
DWIDTH 14 0
BBX 14 16 0 -4
BITMAP
0000
0000
0000
7BDC
3188
3188
3190
1BD0
1AD0
1AF0
0E60
0C60
0C60
0000
0000
0000
ENDCHAR
STARTCHAR C0058
ENCODING -1 88
SWIDTH 625 0
DWIDTH 10 0
BBX 10 16 0 -4
BITMAP
0000
0000
0000
7B80
3100
1A00
1A00
0C00
0C00
1600
1600
2300
7780
0000
0000
0000
ENDCHAR
STARTCHAR C0059
ENCODING -1 89
SWIDTH 625 0
DWIDTH 10 0
BBX 10 16 0 -4
BITMAP
0000
0000
0000
7B80
3100
3100
1A00
1A00
0C00
0C00
0C00
0C00
1E00
0000
0000
0000
ENDCHAR
STARTCHAR C005A
ENCODING -1 90
SWIDTH 562 0
DWIDTH 9 0
BBX 9 16 0 -4
BITMAP
0000
0000
0000
7F00
4300
4600
0600
0C00
1800
1800
3100
6100
7F00
0000
0000
0000
ENDCHAR
STARTCHAR C005B
ENCODING -1 91
SWIDTH 438 0
DWIDTH 7 0
BBX 7 16 0 -4
BITMAP
00
00
7C
60
60
60
60
60
60
60
60
60
60
60
60
7C
ENDCHAR
STARTCHAR C005C
ENCODING -1 92
SWIDTH 500 0
DWIDTH 8 0
BBX 8 16 0 -4
BITMAP
00
00
00
60
60
30
30
18
18
0C
0C
06
06
00
00
00
ENDCHAR
STARTCHAR C005D
ENCODING -1 93
SWIDTH 438 0
DWIDTH 7 0
BBX 7 16 0 -4
BITMAP
00
00
7C
0C
0C
0C
0C
0C
0C
0C
0C
0C
0C
0C
0C
7C
ENDCHAR
STARTCHAR C005E
ENCODING -1 94
SWIDTH 625 0
DWIDTH 10 0
BBX 10 16 0 -4
BITMAP
0000
0000
0000
0000
0C00
1E00
3F00
6D80
4C80
0C00
0C00
0C00
0000
0000
0000
0000
ENDCHAR
STARTCHAR C005F
ENCODING -1 95
SWIDTH 625 0
DWIDTH 10 0
BBX 10 16 0 -4
BITMAP
0000
0000
0000
0000
0C00
1800
3000
7F80
7F80
3000
1800
0C00
0000
0000
0000
0000
ENDCHAR
STARTCHAR C0060
ENCODING -1 96
SWIDTH 0 0
DWIDTH 0 0
BBX 0 16 0 -4
BITMAP
00
00
00
00
00
00
00
00
00
00
00
00
00
00
00
00
ENDCHAR
STARTCHAR C0061
ENCODING -1 97
SWIDTH 500 0
DWIDTH 8 0
BBX 8 16 0 -4
BITMAP
00
00
00
00
00
00
1C
26
0E
36
66
66
3B
00
00
00
ENDCHAR
STARTCHAR C0062
ENCODING -1 98
SWIDTH 562 0
DWIDTH 9 0
BBX 9 16 0 -4
BITMAP
0000
0000
0000
7000
3000
3000
3600
3B00
3300
3300
3300
3300
2E00
0000
0000
0000
ENDCHAR
STARTCHAR C0063
ENCODING -1 99
SWIDTH 500 0
DWIDTH 8 0
BBX 8 16 0 -4
BITMAP
00
00
00
00
00
00
3C
62
66
60
60
62
3C
00
00
00
ENDCHAR
STARTCHAR C0064
ENCODING -1 100
SWIDTH 500 0
DWIDTH 8 0
BBX 8 16 0 -4
BITMAP
00
00
00
0E
06
06
36
6E
66
66
66
66
3B
00
00
00
ENDCHAR
STARTCHAR C0065
ENCODING -1 101
SWIDTH 500 0
DWIDTH 8 0
BBX 8 16 0 -4
BITMAP
00
00
00
00
00
00
3C
66
66
7E
60
62
3C
00
00
00
ENDCHAR
STARTCHAR C0066
ENCODING -1 102
SWIDTH 375 0
DWIDTH 6 0
BBX 6 16 0 -4
BITMAP
00
00
00
1C
34
30
78
30
30
30
30
30
78
00
00
00
ENDCHAR
STARTCHAR C0067
ENCODING -1 103
SWIDTH 500 0
DWIDTH 8 0
BBX 8 16 0 -4
BITMAP
00
00
00
00
00
00
3D
66
66
7C
20
7C
7E
C6
C6
7C
ENDCHAR
STARTCHAR C0068
ENCODING -1 104
SWIDTH 562 0
DWIDTH 9 0
BBX 9 16 0 -4
BITMAP
0000
0000
0000
7000
3000
3000
3600
3B00
3300
3300
3300
3300
7780
0000
0000
0000
ENDCHAR
STARTCHAR C0069
ENCODING -1 105
SWIDTH 375 0
DWIDTH 6 0
BBX 6 16 0 -4
BITMAP
00
00
00
30
30
00
70
30
30
30
30
30
78
00
00
00
ENDCHAR
STARTCHAR C006A
ENCODING -1 106
SWIDTH 312 0
DWIDTH 5 0
BBX 5 16 0 -4
BITMAP
00
00
00
30
30
00
70
30
30
30
30
30
30
B0
B0
60
ENDCHAR
STARTCHAR C006B
ENCODING -1 107
SWIDTH 562 0
DWIDTH 9 0
BBX 9 16 0 -4
BITMAP
0000
0000
0000
7000
3000
3000
3700
3200
3400
3C00
3600
3700
7380
0000
0000
0000
ENDCHAR
STARTCHAR C006C
ENCODING -1 108
SWIDTH 375 0
DWIDTH 6 0
BBX 6 16 0 -4
BITMAP
00
00
00
70
30
30
30
30
30
30
30
30
78
00
00
00
ENDCHAR
STARTCHAR C006D
ENCODING -1 109
SWIDTH 812 0
DWIDTH 13 0
BBX 13 16 0 -4
BITMAP
0000
0000
0000
0000
0000
0000
76E0
3BB0
3330
3330
3330
3330
77B8
0000
0000
0000
ENDCHAR
STARTCHAR C006E
ENCODING -1 110
SWIDTH 562 0
DWIDTH 9 0
BBX 9 16 0 -4
BITMAP
0000
0000
0000
0000
0000
0000
7600
3B00
3300
3300
3300
3300
7B80
0000
0000
0000
ENDCHAR
STARTCHAR C006F
ENCODING -1 111
SWIDTH 500 0
DWIDTH 8 0
BBX 8 16 0 -4
BITMAP
00
00
00
00
00
00
3C
66
66
66
66
66
3C
00
00
00
ENDCHAR
STARTCHAR C0070
ENCODING -1 112
SWIDTH 562 0
DWIDTH 9 0
BBX 9 16 0 -4
BITMAP
0000
0000
0000
0000
0000
0000
7600
3B00
3300
3300
3300
3B00
3600
3000
3000
7800
ENDCHAR
STARTCHAR C0071
ENCODING -1 113
SWIDTH 500 0
DWIDTH 8 0
BBX 8 16 0 -4
BITMAP
00
00
00
00
00
00
36
6E
66
66
66
6E
36
06
06
0F
ENDCHAR
STARTCHAR C0072
ENCODING -1 114
SWIDTH 438 0
DWIDTH 7 0
BBX 7 16 0 -4
BITMAP
00
00
00
00
00
00
7C
34
30
30
30
30
78
00
00
00
ENDCHAR
STARTCHAR C0073
ENCODING -1 115
SWIDTH 438 0
DWIDTH 7 0
BBX 7 16 0 -4
BITMAP
00
00
00
00
00
00
38
64
70
38
1C
4C
78
00
00
00
ENDCHAR
STARTCHAR C0074
ENCODING -1 116
SWIDTH 375 0
DWIDTH 6 0
BBX 6 16 0 -4
BITMAP
00
00
00
00
10
30
78
30
30
30
30
34
18
00
00
00
ENDCHAR
STARTCHAR C0075
ENCODING -1 117
SWIDTH 562 0
DWIDTH 9 0
BBX 9 16 0 -4
BITMAP
0000
0000
0000
0000
0000
0000
7700
3300
3300
3300
3300
3700
1B80
0000
0000
0000
ENDCHAR
STARTCHAR C0076
ENCODING -1 118
SWIDTH 500 0
DWIDTH 8 0
BBX 8 16 0 -4
BITMAP
00
00
00
00
00
00
F7
62
62
34
34
18
18
00
00
00
ENDCHAR
STARTCHAR C0077
ENCODING -1 119
SWIDTH 812 0
DWIDTH 13 0
BBX 13 16 0 -4
BITMAP
0000
0000
0000
0000
0000
0000
7BB8
3110
33B0
1BA0
1EE0
0CC0
0840
0000
0000
0000
ENDCHAR
STARTCHAR C0078
ENCODING -1 120
SWIDTH 562 0
DWIDTH 9 0
BBX 9 16 0 -4
BITMAP
0000
0000
0000
0000
0000
0000
7300
3A00
1C00
0C00
1E00
3700
6380
0000
0000
0000
ENDCHAR
STARTCHAR C0079
ENCODING -1 121
SWIDTH 500 0
DWIDTH 8 0
BBX 8 16 0 -4
BITMAP
00
00
00
00
00
00
F7
62
62
34
34
18
18
50
F0
60
ENDCHAR
STARTCHAR C007A
ENCODING -1 122
SWIDTH 500 0
DWIDTH 8 0
BBX 8 16 0 -4
BITMAP
00
00
00
00
00
00
7E
46
0C
18
30
62
7E
00
00
00
ENDCHAR
STARTCHAR C007B
ENCODING -1 123
SWIDTH 500 0
DWIDTH 8 0
BBX 8 16 0 -4
BITMAP
00
00
0E
18
18
18
18
18
70
18
18
18
18
18
18
0E
ENDCHAR
STARTCHAR C007C
ENCODING -1 124
SWIDTH 250 0
DWIDTH 4 0
BBX 4 16 0 -4
BITMAP
00
00
00
60
60
60
60
60
60
60
60
60
60
60
60
00
ENDCHAR
STARTCHAR C007D
ENCODING -1 125
SWIDTH 500 0
DWIDTH 8 0
BBX 8 16 0 -4
BITMAP
00
00
70
18
18
18
18
18
0E
18
18
18
18
18
18
70
ENDCHAR
STARTCHAR C007E
ENCODING -1 126
SWIDTH 625 0
DWIDTH 10 0
BBX 10 16 0 -4
BITMAP
0000
0000
0000
0000
0000
0000
0000
1980
3F00
6600
0000
0000
0000
0000
0000
0000
ENDCHAR
STARTCHAR C007F
ENCODING -1 127
SWIDTH 0 0
DWIDTH 0 0
BBX 0 16 0 -4
BITMAP
00
00
00
00
00
00
00
00
00
00
00
00
00
00
00
00
ENDCHAR
ENDFONT
